<svg width="220" height="220" viewBox="0 0 220 220" fill="none" xmlns="http://www.w3.org/2000/svg">
<circle cx="110.1" cy="110.08" r="91.92" fill="#FFECEC"/>
<circle cx="110.503" cy="110.483" r="64.0655" fill="#FF5D5D"/>
<path d="M86.4492 92.858H133.546M104.111 124.025V105.325M115.885 124.025V105.325M121.772 136.492H98.2235C94.9721 136.492 92.3364 133.701 92.3364 130.259V95.9747C92.3364 94.2534 93.6542 92.858 95.2799 92.858H124.716C126.341 92.858 127.659 94.2534 127.659 95.9747V130.259C127.659 133.701 125.023 136.492 121.772 136.492ZM104.111 92.858H115.885C117.511 92.858 118.828 91.4626 118.828 89.7412V86.6245C118.828 84.9032 117.511 83.5078 115.885 83.5078H104.111C102.485 83.5078 101.167 84.9032 101.167 86.6245V89.7412C101.167 91.4626 102.485 92.858 104.111 92.858Z" stroke="white" stroke-width="4" stroke-linecap="round" stroke-linejoin="round"/>
<path d="M161.295 55.6916C161.849 44.4282 161.95 40.4587 166.917 39.069C162.711 37.7101 161.396 37.4464 160.812 27.1846C160.103 37.953 159.074 38.1546 155.221 39.3282C159.737 40.4954 160.573 44.815 161.295 55.6916Z" fill="#FF5D5D"/>
<path d="M53.3854 194.52C53.8642 184.784 53.952 181.353 58.2451 180.151C54.6099 178.976 53.4731 178.748 52.9686 169.879C52.3544 179.187 51.4658 179.361 48.1356 180.376C52.0387 181.385 52.7617 185.119 53.3854 194.52Z" fill="#FF5D5D"/>
<path d="M162.137 196.079C162.6 185.727 162.685 182.078 166.843 180.8C163.322 179.552 162.221 179.31 161.733 169.879C161.139 179.775 160.277 179.962 157.053 181.041C160.832 182.113 161.532 186.083 162.137 196.079Z" fill="#FF5D5D"/>
<path d="M63.2931 49.4746C63.756 39.122 63.8415 35.473 67.9993 34.1963C64.4787 32.9472 63.3777 32.7051 62.8892 23.2736C62.295 33.1705 61.4335 33.3568 58.2098 34.4357C61.9896 35.5077 62.6895 39.4782 63.2931 49.4746Z" fill="#FF5D5D"/>
<path d="M197.023 126.685C197.486 116.332 197.572 112.683 201.73 111.406C198.209 110.157 197.108 109.915 196.62 100.484C196.025 110.381 195.164 110.567 191.94 111.647C195.72 112.718 196.42 116.689 197.023 126.685Z" fill="#FF5D5D"/>
<path d="M23.2538 126.685C23.7168 116.332 23.8024 112.683 27.9602 111.406C24.4396 110.157 23.3385 109.915 22.8501 100.484C22.2559 110.381 21.3944 110.567 18.1707 111.647C21.9504 112.718 22.6503 116.689 23.2538 126.685Z" fill="#FF5D5D"/>
</svg>
