<svg width="198" height="198" viewBox="0 0 198 198" fill="none" xmlns="http://www.w3.org/2000/svg">
<mask id="mask0_1134_8047" style="mask-type:luminance" maskUnits="userSpaceOnUse" x="105" y="7" width="86" height="117">
<path d="M190.687 7.91797H105.719V123.088H190.687V7.91797Z" fill="white"/>
</mask>
<g mask="url(#mask0_1134_8047)">
<path d="M105.719 22.0595L107.417 7.91797L109.175 8.12973L112.831 20.2173L119.373 9.35248L121.107 9.56028L119.409 23.7018L117.886 23.518L119.253 12.1416L113.003 22.9306L111.996 22.8107L108.628 10.8669L107.261 22.2433L105.719 22.0595Z" fill="#D9D9D9"/>
<path d="M120.912 24.6652C121.256 25.6242 122.806 26.3156 123.901 25.1368L124.924 23.9779L123.601 13.6006L125.068 14.0401L126.031 22.979L132.152 16.1659L133.619 16.6055L124.94 25.848C123.05 27.87 120.664 26.9509 119.789 25.2247L120.904 24.6573L120.912 24.6652Z" fill="#D9D9D9"/>
<path d="M152.913 17.133L155.215 18.4317L145.881 35.0027L143.579 33.704L147.599 26.5673L141.852 23.3306L137.832 30.4674L135.531 29.1687L144.865 12.5977L147.167 13.8963L143.147 21.033L148.893 24.2697L152.913 17.133Z" fill="#D9D9D9"/>
<path d="M160.453 34.8229L151.567 35.8059C151.774 36.1735 152.054 36.5091 152.406 36.7889C153.341 37.5241 154.547 37.672 155.586 37.2923L155.902 39.9576C154.176 40.3932 152.274 40.0535 150.767 38.8667C148.19 36.8368 147.743 33.1046 149.772 30.5233C151.802 27.9459 155.534 27.4984 158.116 29.5283C160.09 31.0827 160.302 32.689 160.449 34.8229H160.453ZM157.285 32.5132C157.085 32.1736 156.817 31.8619 156.485 31.6022C155.055 30.4753 152.981 30.723 151.854 32.1536C151.607 32.4693 151.426 32.8129 151.311 33.1725L157.285 32.5092V32.5132Z" fill="#D9D9D9"/>
<path d="M171.725 42.6631L163.054 50.7826L162.151 49.8198L162.203 48.2214C161.012 47.9937 159.885 47.3983 158.994 46.4472C156.753 44.0537 156.876 40.2935 159.27 38.0518C161.664 35.8101 165.424 35.934 167.665 38.3276C168.5 39.2187 169.004 40.2976 169.191 41.4164L169.919 40.7331L171.725 42.6631ZM165.579 44.793C166.91 43.5462 166.978 41.4604 165.731 40.1337C164.485 38.8031 162.399 38.7351 161.072 39.9818C159.741 41.2286 159.674 43.3144 160.92 44.6451C162.167 45.9757 164.253 46.0437 165.579 44.7969V44.793Z" fill="#D9D9D9"/>
<path d="M176.26 49.0477C177.41 50.69 177.007 52.9556 175.364 54.1025L173.85 51.9369C174.298 51.625 174.406 51.0097 174.094 50.5623C173.051 49.0717 170.993 48.704 169.503 49.747L164.636 53.1516L163.121 50.9855L172.859 44.1807L174.373 46.3464L173.554 46.9179C174.614 47.3294 175.564 48.0487 176.264 49.0477H176.26Z" fill="#D9D9D9"/>
<path d="M174.912 62.1226L175.48 63.4289C173.486 64.364 173.786 66.7296 174.301 67.9166C174.937 69.3828 176.227 70.7737 177.974 70.0862C179.644 69.4308 179.931 68.0364 179.288 65.3713C178.505 62.3221 178.928 60.1604 180.999 59.2373C183.164 58.3185 185.31 59.5768 186.377 62.0305C187.436 64.464 186.968 67.233 184.619 68.324L184.051 67.0172C185.865 66.1584 185.894 64.0526 185.23 62.53C184.595 61.0633 183.164 59.9446 181.574 60.6119C180.259 61.1593 179.892 62.5899 180.499 65.0114C181.366 68.468 180.851 70.5297 178.489 71.485C176.011 72.4439 174.106 70.7099 173.127 68.3561C172.099 65.8866 172.503 63.2374 174.912 62.1226Z" fill="#D9D9D9"/>
<path d="M171.75 74.6658L185.971 70.9736L186.355 72.4562L183.726 73.1393C185.596 73.3912 187.33 74.9217 187.865 76.8993C188.652 79.9282 186.886 82.8373 183.861 83.6243C180.457 84.5079 177.78 82.7734 177.024 79.7807C176.493 77.7348 177.192 75.6128 178.699 74.4659L172.142 76.1682L171.75 74.6658ZM183.478 82.1621C185.899 81.535 187.078 79.1095 186.515 76.9394C185.931 74.7737 183.718 73.2071 181.316 73.8308C178.643 74.5258 177.64 76.9235 178.203 79.0971C178.751 81.2949 180.681 82.8893 183.478 82.1621Z" fill="#D9D9D9"/>
<path d="M184.138 85.3398C187.706 85.024 190.088 87.2178 190.339 90.3388C190.527 92.4683 189.492 94.4864 187.774 95.3932L190.547 95.1497L190.683 96.6961L179.786 97.6588L179.65 96.1328L182.487 95.8808C180.637 95.3096 179.199 93.4835 179.015 91.4016C178.715 88.2449 180.973 85.6195 184.133 85.3398H184.138ZM185.045 95.5892C187.818 95.3452 189.264 93.0717 189.084 90.814C188.885 88.5365 187.218 86.6025 184.273 86.8619C181.736 87.0856 180.157 89.3275 180.357 91.5812C180.581 93.8587 182.527 95.809 185.045 95.5853V95.5892Z" fill="#D9D9D9"/>
<path d="M185.172 98.9011C188.701 99.1565 190.71 101.878 190.471 105.17C190.291 107.624 188.849 109.618 186.938 110.321L186.459 108.858C188.017 108.235 189.06 106.733 189.18 105.075C189.348 102.773 187.773 100.623 185.06 100.427C182.563 100.247 180.605 102.158 180.441 104.419C180.313 106.161 181.212 107.808 182.667 108.627L181.964 109.982C180.157 108.943 178.951 106.797 179.126 104.343C179.362 101.115 181.92 98.6813 185.168 98.8971L185.172 98.9011Z" fill="#D9D9D9"/>
<path d="M184.119 111.86C187.647 112.696 189.066 115.784 188.371 118.721C187.699 121.555 185.274 123.552 181.769 122.989L181.118 122.833L183.379 113.191C181.074 112.823 179.036 114.49 178.561 116.396C178.221 117.822 178.561 119.481 179.748 120.56L178.865 121.57C177.366 120.216 176.818 118.134 177.298 116.1C177.993 113.159 180.922 111.105 184.115 111.86H184.119ZM182.405 121.634C184.81 121.962 186.672 120.384 187.132 118.43C187.591 116.5 186.633 114.274 184.323 113.527L182.401 121.634H182.405Z" fill="#D9D9D9"/>
</g>
<path d="M99.0029 169.294C137.824 169.294 169.295 137.823 169.295 99.0019C169.295 60.1806 137.824 28.71 99.0029 28.71C60.1815 28.71 28.7109 60.1806 28.7109 99.0019C28.7109 137.823 60.1815 169.294 99.0029 169.294Z" fill="#D9D9D9"/>
<path d="M96.685 145.087C98.2155 144.192 99.4743 143.408 100.809 142.577C102.87 141.291 105.004 139.964 108.453 138.026C109.94 137.191 115.106 134.322 119.246 132.388C125.272 129.57 136.488 124.336 150.814 124.756C155.105 124.883 159.393 125.527 163.632 126.67C164.927 123.653 166.01 120.528 166.877 117.315C161.567 115.465 156.152 114.446 150.741 114.282C136.996 113.871 126.123 118.954 120.277 121.683C116.213 123.581 111.11 126.414 109.644 127.241C106.243 129.151 104.133 130.466 102.095 131.737C100.749 132.576 99.4743 133.371 97.9116 134.282C95.5861 135.64 88.5175 139.768 80.7014 142.534C76.2578 144.108 67.5869 146.533 56.4024 146.533C54.956 146.533 53.4655 146.494 51.9389 146.405C50.1688 146.301 48.4065 146.138 46.6562 145.91C50.3846 150.065 54.6001 153.778 59.2115 156.95C68.6699 156.595 75.9781 154.529 79.8861 153.146C87.4903 150.457 94.4075 146.417 96.681 145.087H96.685Z" fill="url(#paint0_linear_1134_8047)"/>
<path d="M150.741 102.623C136.994 102.215 126.122 107.294 120.276 110.023C116.212 111.921 111.109 114.754 109.643 115.581C106.242 117.492 104.132 118.806 102.094 120.077C100.747 120.916 99.4729 121.711 97.9106 122.622C95.5846 123.981 88.516 128.109 80.7 130.874C76.2569 132.448 67.5855 134.874 56.4009 134.874C54.9545 134.874 53.4641 134.834 51.9375 134.746C46.9267 134.458 41.9797 133.671 37.1367 132.412C39.1866 136.201 41.5762 139.777 44.2614 143.105C46.8428 143.533 49.4521 143.825 52.0736 143.977C64.9803 144.723 75.0377 141.958 79.8808 140.244C87.477 137.555 94.3981 133.515 96.6717 132.189C98.2062 131.294 99.4649 130.506 100.799 129.679C102.862 128.392 104.995 127.066 108.444 125.128C109.93 124.293 115.097 121.424 119.237 119.489C125.262 116.672 136.479 111.434 150.804 111.857C156.394 112.025 161.985 113.064 167.467 114.954C168.115 112.165 168.594 109.312 168.898 106.411C162.94 104.085 156.834 102.815 150.733 102.631L150.741 102.623Z" fill="url(#paint1_linear_1134_8047)"/>
<path d="M52.0829 132.308C64.99 133.055 75.0474 130.29 79.8905 128.576C87.4867 125.886 94.4078 121.847 96.6814 120.52C98.2159 119.625 99.4746 118.838 100.809 118.01C102.871 116.724 105.005 115.397 108.453 113.459C109.94 112.624 115.106 109.755 119.246 107.821C125.272 105.004 136.489 99.7652 150.814 100.189C156.963 100.373 163.113 101.615 169.119 103.877C169.231 102.266 169.291 100.64 169.291 99.0019C169.291 60.1816 137.823 28.71 99.0029 28.71C60.1825 28.71 28.7109 60.1816 28.7109 99.0019C28.7109 109.915 31.2004 120.248 35.6358 129.467C40.9904 131.033 46.4967 131.988 52.0789 132.312L52.0829 132.308Z" fill="url(#paint2_linear_1134_8047)"/>
<path d="M150.741 127.19C136.996 126.778 126.123 131.861 120.277 134.59C116.213 136.488 111.11 139.321 109.643 140.148C106.243 142.058 104.133 143.373 102.095 144.644C100.749 145.483 99.4742 146.278 97.9115 147.189C95.5899 148.548 88.5213 152.676 80.7013 155.441C77.1289 156.703 70.8152 158.522 62.668 159.185C73.2689 165.598 85.7043 169.29 98.9985 169.29C127.118 169.29 151.377 152.775 162.617 128.92C158.686 127.889 154.709 127.305 150.741 127.19Z" fill="url(#paint3_linear_1134_8047)"/>
<path d="M45.6238 125.651C46.9413 125.651 48.0094 124.583 48.0094 123.265C48.0094 121.948 46.9413 120.88 45.6238 120.88C44.3063 120.88 43.2383 121.948 43.2383 123.265C43.2383 124.583 44.3063 125.651 45.6238 125.651Z" fill="#D9D9D9"/>
<path d="M146.491 92.2444C147.809 92.2444 148.877 91.1767 148.877 89.859C148.877 88.5418 147.809 87.4736 146.491 87.4736C145.174 87.4736 144.105 88.5418 144.105 89.859C144.105 91.1767 145.174 92.2444 146.491 92.2444Z" fill="#D9D9D9"/>
<path d="M149.35 68.258C149.979 68.258 150.488 67.7481 150.488 67.1195C150.488 66.4903 149.979 65.9805 149.35 65.9805C148.721 65.9805 148.211 66.4903 148.211 67.1195C148.211 67.7481 148.721 68.258 149.35 68.258Z" fill="#D9D9D9"/>
<path d="M45.9943 77.9992C46.6233 77.9992 47.1331 77.4893 47.1331 76.8602C47.1331 76.2315 46.6233 75.7217 45.9943 75.7217C45.3653 75.7217 44.8555 76.2315 44.8555 76.8602C44.8555 77.4893 45.3653 77.9992 45.9943 77.9992Z" fill="#D9D9D9"/>
<path d="M98.3843 44.5015C99.0995 44.5015 99.6792 43.9218 99.6792 43.2068C99.6792 42.4918 99.0995 41.9121 98.3843 41.9121C97.6695 41.9121 97.0898 42.4918 97.0898 43.2068C97.0898 43.9218 97.6695 44.5015 98.3843 44.5015Z" fill="#D9D9D9"/>
<path d="M68.2398 82.43C68.2571 81.741 68.4972 77.1677 72.3523 74.3556C76.9543 70.9985 82.6389 73.4923 83.7521 74.02C87.9873 76.0297 89.7901 79.8749 90.0916 80.5377C91.0563 82.6741 91.9429 86.1797 87.4983 102.276C86.5202 105.821 85.6381 108.685 85.0619 110.512C84.8654 111.192 84.1887 111.615 83.4903 111.493L83.416 111.48C83.3853 111.476 83.3546 111.467 83.32 111.458C81.4558 110.992 78.5695 110.246 75.0594 109.234C58.9967 104.6 56.4687 102.015 55.1461 100.074C54.7357 99.4729 52.3998 95.9282 52.8973 91.2717C53.0284 90.0466 53.8709 83.9037 59.1452 81.741C63.5635 79.9318 67.48 82.1598 68.0779 82.5043L68.222 82.5998L68.2353 82.4256L68.2398 82.43Z" stroke="#D9D9D9" stroke-width="2.0088" stroke-miterlimit="10"/>
<mask id="mask1_1134_8047" style="mask-type:luminance" maskUnits="userSpaceOnUse" x="71" y="51" width="42" height="63">
<path d="M71.0195 68.5197C71.8907 68.5197 82.5456 63.3732 88.3282 70.0883C94.1113 76.804 92.8084 80.2858 92.8084 80.2858L93.244 94.6666L90.6294 108.611L90.1934 113.405C90.1934 113.405 111.111 102.946 111.547 102.946C111.982 102.946 113.29 85.9506 112.418 78.9785C111.547 72.006 107.625 61.5471 105.881 59.3686C104.138 57.1896 100.217 53.7033 97.1659 52.8316C94.1157 51.9599 82.3496 51.5243 81.4779 51.9599L71.0195 68.5197Z" fill="white"/>
</mask>
<g mask="url(#mask1_1134_8047)">
<path d="M96.2571 106.85C98.6058 105.556 100.367 103.464 101.486 100.618C102.524 97.9949 102.332 95.9204 102.131 93.7201C102.075 93.0835 102.014 92.4212 101.979 91.7198C101.778 87.5885 102.646 85.3833 103.487 83.2523C104.31 81.1654 105.16 79.0037 104.916 75.4214C104.663 71.7525 103.365 65.015 97.4817 61.0585C96.7145 60.5442 89.7726 56.1209 82.3124 59.5987C76.7996 62.1737 73.344 67.9697 73.5138 74.3844C73.5311 75.0947 74.1241 75.657 74.8384 75.6397C75.5487 75.6219 76.1111 75.0294 76.0937 74.3146C75.9497 68.933 78.8172 64.0696 83.4014 61.9342C89.681 59.0057 95.7863 63.0237 96.0437 63.1979C101.016 66.5406 102.127 72.3975 102.345 75.5962C102.55 78.5983 101.874 80.3155 101.09 82.3069C100.192 84.5819 99.1766 87.1613 99.4077 91.846C99.4468 92.6044 99.5082 93.2929 99.5691 93.9552C99.7562 96.0035 99.9047 97.6202 99.0939 99.6725C98.1658 102.021 96.7323 103.712 94.8191 104.697C92.0778 106.113 87.9119 106.231 85.2448 103.726C83.7197 102.287 83.1663 100.457 82.9703 99.176C82.8614 98.4701 82.2075 97.986 81.5016 98.0949C80.8002 98.2043 80.3121 98.8577 80.421 99.5636C80.6779 101.246 81.4145 103.664 83.4801 105.604C87.1842 109.09 92.5659 108.767 96.0041 106.99C96.0912 106.946 96.1789 106.898 96.2615 106.85H96.2571Z" fill="#D9D9D9"/>
<path d="M89.8693 68.454C90.3618 68.3624 90.7494 68.2144 91.142 68.1318C91.926 67.9966 92.6799 68.1575 93.364 68.5674C93.7174 68.7763 94.1095 69.0554 94.5322 69.3084C94.7238 69.4212 94.9723 69.3648 95.0856 69.1733C95.1336 69.0901 95.151 68.9985 95.1421 68.9114C95.0985 68.5936 94.9896 68.3233 94.8371 68.062C94.0352 66.724 92.1656 66.2052 90.7455 66.7893C90.1742 66.9943 89.6599 67.3427 89.3902 67.9135C89.2417 68.2273 89.5471 68.5585 89.8738 68.454H89.8693Z" fill="#D9D9D9"/>
</g>
<mask id="mask2_1134_8047" style="mask-type:luminance" maskUnits="userSpaceOnUse" x="102" y="42" width="33" height="42">
<path d="M124.788 42.432L102.012 48.9336L111.915 83.6273L134.691 77.1257L124.788 42.432Z" fill="white"/>
</mask>
<g mask="url(#mask2_1134_8047)">
<mask id="mask3_1134_8047" style="mask-type:luminance" maskUnits="userSpaceOnUse" x="102" y="42" width="33" height="42">
<path d="M125.076 42.4808L102.207 48.6084L111.545 83.4586L134.414 77.3309L125.076 42.4808Z" fill="white"/>
</mask>
<g mask="url(#mask3_1134_8047)">
<path opacity="0.9" d="M112.151 80.162C111.894 80.2308 111.612 80.2011 111.363 80.0591C110.864 79.773 110.694 79.1359 110.981 78.6394C112.45 76.0827 113.244 73.2286 113.277 70.3873C113.304 67.9583 112.778 66.1407 112.497 65.163C111.327 61.1115 109.187 58.4241 108.014 57.1817C106.821 55.9174 105.449 54.8215 103.939 53.9255C103.445 53.632 103.283 52.9954 103.575 52.5014C103.869 52.0074 104.505 51.8456 104.999 52.1371C106.675 53.1326 108.198 54.3493 109.526 55.7546C110.828 57.1341 113.204 60.1135 114.495 64.5849C114.785 65.5877 115.387 67.6737 115.356 70.409C115.319 73.6067 114.429 76.8094 112.784 79.674C112.64 79.9234 112.409 80.0907 112.152 80.1596L112.151 80.162Z" fill="#D9D9D9"/>
<path opacity="0.6" d="M120.346 80.6023C120.149 80.6552 119.937 80.6498 119.731 80.578C119.189 80.3874 118.906 79.7915 119.098 79.2514C119.979 76.766 120.517 74.1767 120.696 71.5542C120.976 67.4798 120.329 64.3257 120.037 63.1575C118.589 57.359 115.481 53.6396 114.212 52.311C112.925 50.9622 111.465 49.7712 109.873 48.7706C109.387 48.4641 109.241 47.823 109.547 47.3362C109.853 46.8494 110.494 46.7035 110.982 47.01C112.718 48.1029 114.311 49.4025 115.717 50.8745C117.1 52.3234 120.488 56.3725 122.055 62.6536C122.369 63.9163 123.07 67.3259 122.77 71.6957C122.579 74.5068 122.001 77.2833 121.057 79.9449C120.938 80.28 120.666 80.5166 120.346 80.6023Z" fill="#D9D9D9"/>
<path opacity="0.3" d="M129.084 78.7565C128.899 78.806 128.699 78.806 128.503 78.7442C127.956 78.5724 127.651 77.9888 127.823 77.4413C128.81 74.2971 129.236 71.1004 129.091 67.9403C128.953 64.9767 128.347 62.72 127.758 60.5381C126.98 57.6532 126.368 55.3762 124.918 52.9279C123.33 50.245 121.098 47.9437 118.287 46.0881C117.809 45.7708 117.676 45.126 117.992 44.6476C118.309 44.1687 118.954 44.0368 119.432 44.352C122.508 46.3822 124.955 48.9122 126.705 51.8681C128.301 54.5614 128.947 56.9602 129.764 59.9985C130.38 62.2894 131.018 64.656 131.165 67.8457C131.321 71.2499 130.863 74.6876 129.802 78.0645C129.692 78.417 129.411 78.6689 129.08 78.7575L129.084 78.7565Z" fill="#D9D9D9"/>
</g>
</g>
<defs>
<linearGradient id="paint0_linear_1134_8047" x1="106.767" y1="114.258" x2="106.767" y2="156.95" gradientUnits="userSpaceOnUse">
<stop stop-color="#373737"/>
<stop offset="0.25" stop-color="#2F2F2F"/>
<stop offset="0.63" stop-color="#1A1A1A"/>
<stop offset="1"/>
</linearGradient>
<linearGradient id="paint1_linear_1134_8047" x1="103.021" y1="102.599" x2="103.021" y2="144.096" gradientUnits="userSpaceOnUse">
<stop stop-color="#373737"/>
<stop offset="0.25" stop-color="#2F2F2F"/>
<stop offset="0.63" stop-color="#1A1A1A"/>
<stop offset="1"/>
</linearGradient>
<linearGradient id="paint2_linear_1134_8047" x1="99.0029" y1="28.71" x2="99.0029" y2="132.432" gradientUnits="userSpaceOnUse">
<stop stop-color="#373737"/>
<stop offset="0.25" stop-color="#2F2F2F"/>
<stop offset="0.63" stop-color="#1A1A1A"/>
<stop offset="1"/>
</linearGradient>
<linearGradient id="paint3_linear_1134_8047" x1="112.645" y1="127.17" x2="112.645" y2="169.29" gradientUnits="userSpaceOnUse">
<stop stop-color="#373737"/>
<stop offset="0.25" stop-color="#2F2F2F"/>
<stop offset="0.63" stop-color="#1A1A1A"/>
<stop offset="1"/>
</linearGradient>
</defs>
</svg>
