<svg width="220" height="220" viewBox="0 0 220 220" fill="none" xmlns="http://www.w3.org/2000/svg">
<circle cx="110.095" cy="110.08" r="97.8997" fill="#D9FFEE"/>
<circle cx="110.53" cy="110.511" r="68.2332" fill="#38C085"/>
<path d="M133.651 90.6465L98.3876 128.998L86.3672 115.925" stroke="white" stroke-width="11.04" stroke-linecap="round" stroke-linejoin="round"/>
<path d="M164.631 52.1522C165.221 40.156 165.329 35.9282 170.619 34.4482C166.14 33.0009 164.739 32.72 164.117 21.7907C163.361 33.2596 162.266 33.4743 158.163 34.7242C162.972 35.9673 163.863 40.568 164.631 52.1522Z" fill="#38C085"/>
<path d="M49.6995 200.014C50.2094 189.644 50.3029 185.989 54.8753 184.709C51.0036 183.458 49.7929 183.216 49.2555 173.769C48.6014 183.683 47.655 183.868 44.1082 184.949C48.2652 186.023 49.0352 190 49.6995 200.014Z" fill="#38C085"/>
<path d="M165.522 201.674C166.015 190.648 166.106 186.761 170.534 185.401C166.785 184.071 165.612 183.814 165.092 173.769C164.459 184.309 163.542 184.508 160.108 185.657C164.133 186.799 164.878 191.027 165.522 201.674Z" fill="#38C085"/>
<path d="M60.2565 45.5312C60.7495 34.505 60.8407 30.6187 65.2689 29.2589C61.5192 27.9286 60.3466 27.6708 59.8263 17.6257C59.1935 28.1664 58.276 28.3649 54.8426 29.5139C58.8682 30.6556 59.6136 34.8844 60.2565 45.5312Z" fill="#38C085"/>
<path d="M202.686 127.766C203.179 116.74 203.27 112.853 207.699 111.493C203.949 110.163 202.776 109.905 202.256 99.8604C201.623 110.401 200.706 110.6 197.272 111.749C201.298 112.89 202.043 117.119 202.686 127.766Z" fill="#38C085"/>
<path d="M17.6079 127.764C18.1009 116.738 18.1921 112.851 22.6204 111.491C18.8707 110.161 17.6981 109.903 17.1779 99.8585C16.545 110.399 15.6275 110.598 12.194 111.747C16.2197 112.888 16.965 117.117 17.6079 127.764Z" fill="#38C085"/>
</svg>
